<svg width="85" height="85" viewBox="0 0 85 85" fill="none" xmlns="http://www.w3.org/2000/svg">
<path d="M64.0157 5.50372L78.7951 20.91V79.4962H23.585V79.6875H78.9837V21.1039L64.0157 5.50372Z" fill="#909090"/>
<path d="M63.8323 5.3125H23.3962V79.4962H78.795V20.9127L63.8323 5.3125Z" fill="#F4F4F4"/>
<path d="M22.9898 9.29688H6.01636V27.4311H59.407V9.29688H22.9898Z" fill="#7A7B7C"/>
<path d="M59.6913 27.123H6.36182V8.97546H59.6913V27.123Z" fill="#DD2025"/>
<path d="M24.0445 12.0431H20.5728V24.7931H23.3034V20.4926L23.9063 20.5272C24.4924 20.5191 25.0731 20.4141 25.6249 20.2164C26.11 20.0517 26.5559 19.7885 26.9345 19.4434C27.3227 19.1179 27.6278 18.7045 27.8243 18.2375C28.0932 17.4637 28.1885 16.6403 28.1032 15.8256C28.0881 15.2435 27.986 14.6669 27.8004 14.115C27.6332 13.716 27.3845 13.3564 27.0702 13.0591C26.756 12.7618 26.3832 12.5333 25.9756 12.3884C25.6242 12.2583 25.26 12.1657 24.8892 12.1122C24.609 12.0665 24.3257 12.0434 24.0418 12.0431M23.5398 18.1365H23.3034V14.2053H23.816C24.0423 14.189 24.2693 14.2237 24.4804 14.3069C24.6914 14.3901 24.881 14.5197 25.0353 14.6861C25.3549 15.1138 25.5256 15.6344 25.5213 16.1683C25.5213 16.8217 25.5213 17.414 24.9317 17.8311C24.5069 18.065 24.0233 18.1729 23.5398 18.1365ZM33.2909 12.0086C32.996 12.0086 32.7092 12.0298 32.5073 12.0378L31.8751 12.0537H29.8032V24.8037H32.2417C33.1734 24.8277 34.1009 24.6698 34.9723 24.3389C35.6738 24.0618 36.2948 23.6134 36.7785 23.0347C37.2525 22.4533 37.591 21.7737 37.7693 21.0451C37.9788 20.2215 38.0806 19.3742 38.0721 18.5243C38.1241 17.5207 38.0465 16.5145 37.841 15.5308C37.6444 14.8074 37.2804 14.1405 36.7785 13.5837C36.3849 13.1335 35.9006 12.7715 35.3574 12.5212C34.8921 12.3055 34.4025 12.1468 33.8992 12.0484C33.699 12.0156 33.4963 12.0005 33.2935 12.0033M32.8101 22.4609H32.5445V14.3222H32.579C33.1266 14.2588 33.6808 14.3577 34.1728 14.6064C34.5331 14.8941 34.8267 15.2566 35.0334 15.6689C35.2564 16.1027 35.3849 16.5789 35.4106 17.0661C35.4345 17.6504 35.4106 18.1286 35.4106 18.5243C35.4204 18.9802 35.3911 19.4361 35.3229 19.887C35.2393 20.3494 35.0881 20.7969 34.874 21.2151C34.6322 21.6052 34.3018 21.9328 33.9098 22.1714C33.5823 22.3839 33.194 22.4828 32.8048 22.4529M46.2985 12.0537H39.8438V24.8037H42.5745V19.7462H46.0276V17.3768H42.5745V14.4231H46.2932V12.0537" fill="#464648"/>
<path d="M57.8558 53.8026C57.8558 53.8026 66.3239 52.2673 66.3239 55.16C66.3239 58.0526 61.0778 56.8759 57.8558 53.8026ZM51.595 54.0231C50.2494 54.3196 48.9382 54.7549 47.6824 55.322L48.7449 52.9314C49.8074 50.5408 50.9097 47.2815 50.9097 47.2815C52.1744 49.4175 53.6498 51.4214 55.3138 53.2634C54.0611 53.45 52.8196 53.7054 51.595 54.0284V54.0231ZM48.2428 36.7575C48.2428 34.2367 49.0583 33.5487 49.6932 33.5487C50.328 33.5487 51.0425 33.8542 51.0664 36.0429C50.8593 38.2438 50.3985 40.4133 49.6932 42.5083C48.7237 40.7505 48.2233 38.7727 48.2402 36.7654L48.2428 36.7575ZM35.8939 64.6906C33.2961 63.1367 41.3419 58.3528 42.8002 58.1987C42.7922 58.2014 38.6139 66.3162 35.8939 64.6906ZM68.7969 55.5026C68.7703 55.237 68.5313 52.2965 63.2985 52.4214C61.1173 52.3831 58.9369 52.5369 56.7827 52.8809C54.6946 50.7791 52.8971 48.4073 51.4383 45.8286C52.3568 43.1704 52.9135 40.4008 53.0932 37.5942C53.0161 34.4067 52.2538 32.5792 49.81 32.6058C47.3663 32.6323 47.0103 34.7706 47.3318 37.9528C47.6463 40.0913 48.2402 42.1792 49.0982 44.1631C49.0982 44.1631 47.9692 47.6773 46.4764 51.1729C44.9836 54.6686 43.9636 56.5014 43.9636 56.5014C41.3674 57.3455 38.9235 58.6011 36.7253 60.2201C34.5366 62.2575 33.6468 63.822 34.7996 65.3865C35.793 66.7359 39.27 67.0414 42.3778 62.9694C44.0263 60.8641 45.5347 58.6529 46.8935 56.35C46.8935 56.35 51.6322 55.0511 53.1064 54.6951C54.5807 54.3392 56.363 54.0576 56.363 54.0576C56.363 54.0576 60.69 58.4112 64.863 58.2572C69.036 58.1031 68.8341 55.7629 68.8075 55.5079" fill="#DD2025"/>
<path d="M63.6277 5.5166V21.1168H78.5903L63.6277 5.5166Z" fill="#909090"/>
<path d="M63.8323 5.3125V20.9127H78.7949L63.8323 5.3125Z" fill="#F4F4F4"/>
<path d="M23.8399 11.8389H20.3682V24.5889H23.1094V20.2911L23.715 20.3257C24.3011 20.3176 24.8818 20.2126 25.4336 20.0149C25.9187 19.8502 26.3646 19.587 26.7432 19.2419C27.1285 18.9155 27.4308 18.5021 27.625 18.036C27.894 17.2622 27.9892 16.4388 27.9039 15.6241C27.8888 15.042 27.7867 14.4654 27.6011 13.9135C27.4339 13.5145 27.1852 13.1549 26.8709 12.8576C26.5567 12.5603 26.1839 12.3318 25.7763 12.1869C25.4233 12.0555 25.0573 11.962 24.6846 11.908C24.4044 11.8624 24.1211 11.8393 23.8372 11.8389M23.3352 17.9324H23.0988V14.0011H23.6141C23.8404 13.9848 24.0674 14.0195 24.2784 14.1028C24.4895 14.186 24.6791 14.3155 24.8333 14.4819C25.1529 14.9096 25.3236 15.4302 25.3194 15.9641C25.3194 16.6175 25.3194 17.2099 24.7297 17.6269C24.305 17.8608 23.8214 17.9661 23.3379 17.9297M33.0863 11.8044C32.7914 11.8044 32.5046 11.8257 32.3027 11.8336L31.6785 11.8496H29.6066V24.5996H32.045C32.9768 24.6235 33.9043 24.4656 34.7757 24.1347C35.4772 23.8577 36.0982 23.4093 36.5819 22.8305C37.0559 22.2492 37.3944 21.5695 37.5727 20.841C37.7822 20.0173 37.884 19.17 37.8755 18.3202C37.9275 17.3165 37.8498 16.3104 37.6444 15.3266C37.4478 14.6033 37.0838 13.9363 36.5819 13.3796C36.1882 12.9293 35.704 12.5673 35.1608 12.3171C34.6955 12.1014 34.2059 11.9426 33.7025 11.8442C33.5024 11.8114 33.2997 11.7963 33.0969 11.7991M32.6135 22.2567H32.3479V14.118H32.3824C32.93 14.0547 33.4842 14.1535 33.9761 14.4022C34.3365 14.69 34.6301 15.0525 34.8368 15.4647C35.0598 15.8986 35.1883 16.3748 35.2139 16.8619C35.2379 17.4463 35.2139 17.9244 35.2139 18.3202C35.2238 18.7761 35.1944 19.232 35.1263 19.6828C35.0427 20.1452 34.8915 20.5927 34.6774 21.011C34.4355 21.401 34.1052 21.7286 33.7132 21.9672C33.3857 22.1797 32.9974 22.2787 32.6082 22.2488M46.0939 11.8496H39.6393V24.5996H42.3699V19.5421H45.823V17.1727H42.3699V14.2189H46.0886V11.8496" fill="white"/>
</svg>
